<svg xmlns="http://www.w3.org/2000/svg" width="156.428" height="29.465" viewBox="0 0 156.428 29.465">
  <g id="coralogix" transform="translate(-0.501 -3.071)">
    <path id="Path_150542" data-name="Path 150542" d="M29.429,17.536A14.464,14.464,0,1,1,14.964,3.071,14.464,14.464,0,0,1,29.429,17.536Z" fill="#fff" opacity="0.4"/>
    <path id="Path_150543" data-name="Path 150543" d="M25.422,17.536A10.446,10.446,0,1,1,14.976,7.089,10.446,10.446,0,0,1,25.422,17.536Z" fill="#fff"/>
    <path id="Path_150544" data-name="Path 150544" d="M139.553,7.868h-4.917v4.287h4.917Z" fill="#fff"/>
    <path id="Path_150545" data-name="Path 150545" d="M134.741,14.416V27.509h4.709V14.416Z" fill="#fff"/>
    <path id="Path_150546" data-name="Path 150546" d="M41.388,26.551a8.114,8.114,0,0,1-3.305-3.391,10.692,10.692,0,0,1-1.152-5.06,10.6,10.6,0,0,1,1.151-5.042A8.154,8.154,0,0,1,41.388,9.7a10.28,10.28,0,0,1,5.054-1.2,11.255,11.255,0,0,1,3.532.565,8.126,8.126,0,0,1,2.788,1.489l-1.5,3.451a8.093,8.093,0,0,0-4.709-1.625,4.274,4.274,0,0,0-3.476,1.439,6.551,6.551,0,0,0-1.2,4.285,6.6,6.6,0,0,0,1.2,4.3,4.27,4.27,0,0,0,3.474,1.455,8.076,8.076,0,0,0,4.709-1.625L52.769,25.7a8.072,8.072,0,0,1-2.789,1.49,11.255,11.255,0,0,1-3.533.565,10.28,10.28,0,0,1-5.059-1.2Z" fill="#fff"/>
    <path id="Path_150547" data-name="Path 150547" d="M54.514,24.5a6.016,6.016,0,0,0,2.527,2.382h-.014a8.933,8.933,0,0,0,7.551,0,6.048,6.048,0,0,0,2.5-2.382,7.154,7.154,0,0,0,.884-3.62,7.078,7.078,0,0,0-.884-3.606,5.982,5.982,0,0,0-2.5-2.354,9.082,9.082,0,0,0-7.565,0,5.966,5.966,0,0,0-2.5,2.354,7.078,7.078,0,0,0-.884,3.606,7.154,7.154,0,0,0,.885,3.62ZM60.8,17.58q2.527,0,2.527,3.3T60.8,24.18q-2.513,0-2.513-3.3t2.517-3.3Z" fill="#fff" fill-rule="evenodd"/>
    <path id="Path_150548" data-name="Path 150548" d="M77.364,18.251l2.564-.283-.264-3.92-1.295.107a5.35,5.35,0,0,0-2.513.7,3.488,3.488,0,0,0-1.48,1.817V14.416h-4.47V27.538h4.709V20.964a2.7,2.7,0,0,1,.606-1.891,3.312,3.312,0,0,1,2.143-.822Z" fill="#fff"/>
    <path id="Path_150549" data-name="Path 150549" d="M93.205,19.951a5.923,5.923,0,0,0-1.468-4.431A6.258,6.258,0,0,0,87.2,14.11a11.956,11.956,0,0,0-3.134.466,11.054,11.054,0,0,0-2.833,1.147l1.193,3.109a11.826,11.826,0,0,1,2.207-.918,7.2,7.2,0,0,1,2.075-.359,2.445,2.445,0,0,1,1.575.387,1.741,1.741,0,0,1,.449,1.371v.308h-.713a19.738,19.738,0,0,0-4.285.37A4.252,4.252,0,0,0,81.423,21.2a3.324,3.324,0,0,0-.727,2.261,3.975,3.975,0,0,0,.623,2.2,4.221,4.221,0,0,0,1.7,1.515,5.307,5.307,0,0,0,2.432.545,3.851,3.851,0,0,0,2.089-.545,3.006,3.006,0,0,0,1.244-1.5v1.837H93.2Zm-4.484,2.182a2.508,2.508,0,0,1-.609,1.744,2,2,0,0,1-1.536.678,1.312,1.312,0,0,1-.991-.4,1.418,1.418,0,0,1-.4-1.012,1.051,1.051,0,0,1,.713-1.026,6.733,6.733,0,0,1,2.406-.305h.413Z" fill="#fff" fill-rule="evenodd"/>
    <path id="Path_150550" data-name="Path 150550" d="M95.4,8.746V27.509h4.71V8.746Z" fill="#fff"/>
    <path id="Path_150551" data-name="Path 150551" d="M102.917,24.5a5.981,5.981,0,0,0,2.513,2.382,8.933,8.933,0,0,0,7.548,0,6.017,6.017,0,0,0,2.5-2.382,7.157,7.157,0,0,0,.887-3.62,7.082,7.082,0,0,0-.887-3.606,5.953,5.953,0,0,0-2.5-2.354,9.076,9.076,0,0,0-7.562,0,5.947,5.947,0,0,0-2.5,2.354,7.072,7.072,0,0,0-.885,3.606,7.147,7.147,0,0,0,.886,3.62Zm6.267-6.92q2.51,0,2.51,3.3.018,3.3-2.51,3.3t-2.527-3.3q.017-3.3,2.527-3.3Z" fill="#fff" fill-rule="evenodd"/>
    <path id="Path_150552" data-name="Path 150552" d="M132.545,14.415v11.5a6.186,6.186,0,0,1-1.918,4.923,8.4,8.4,0,0,1-5.672,1.676,14.17,14.17,0,0,1-3.432-.413,10.214,10.214,0,0,1-2.884-1.156l1.191-3.222a12.056,12.056,0,0,0,2.527.986,9.764,9.764,0,0,0,2.471.345,3.373,3.373,0,0,0,2.314-.678,2.747,2.747,0,0,0,.756-2.142V25.22a4.053,4.053,0,0,1-1.668,1.413,5.4,5.4,0,0,1-2.354.517,5.715,5.715,0,0,1-3.013-.8,5.446,5.446,0,0,1-2.063-2.275,7.526,7.526,0,0,1-.742-3.423,7.589,7.589,0,0,1,.742-3.431,5.51,5.51,0,0,1,2.063-2.3,5.645,5.645,0,0,1,3.013-.811,5.357,5.357,0,0,1,2.382.531,4,4,0,0,1,1.665,1.464v-1.69Zm-5.317,8.4a3.2,3.2,0,0,0,.688-2.17,3.276,3.276,0,0,0-.688-2.207,2.714,2.714,0,0,0-3.833-.014,3.255,3.255,0,0,0-.688,2.221,3.086,3.086,0,0,0,.7,2.17,2.716,2.716,0,0,0,3.821,0Z" fill="#fff" fill-rule="evenodd"/>
    <path id="Path_150553" data-name="Path 150553" d="M156.929,27.511l-5.526-6.76,5.208-6.333h-5.526L148.7,17.5l-2.353-3.086h-5.526l5.209,6.333-5.527,6.76h5.473l2.724-3.459,2.724,3.459Z" fill="#fff"/>
  </g>
</svg>
