<svg id="Etoro_logo" xmlns="http://www.w3.org/2000/svg" width="985.003" height="303.366" viewBox="0 0 985.003 303.366">
  <path id="Path_150532" data-name="Path 150532" d="M94.765,104.471c2.491-2.24,3.838-3.916,1.827-3.916-4.2,0-29.642,3.754-34.884-15.462S84.509,7.9,85.567,5.417C86.582,3.03,84.483,0,81.4,0c-3.025,0-5.243,3.282-5.562,3.684C47.216,39.579,7.254,84.41,2.106,103.734c-13.024,48.926,37.331,68.755,69.116,72.379a.732.732,0,0,0,.842-.725V158.016c0-23.444,8.774-41,22.7-53.545" fill="#fff" fill-rule="evenodd"/>
  <path id="Path_150533" data-name="Path 150533" d="M890.235,104.471c-2.491-2.24-3.838-3.916-1.827-3.916,4.2,0,29.642,3.754,34.884-15.462S900.491,7.9,899.433,5.417C898.418,3.03,900.517,0,903.6,0c3.024,0,5.243,3.282,5.562,3.684,28.625,35.9,68.587,80.726,73.735,100.05,13.023,48.926-37.331,68.755-69.116,72.379a.731.731,0,0,1-.841-.725V158.016c0-23.444-8.775-41-22.7-53.545" fill="#fff" fill-rule="evenodd"/>
  <path id="Path_150534" data-name="Path 150534" d="M856.781,229.373c0,18.975-25.372,29.815-41.883,29.815-17.664,0-42.652-10.84-42.652-29.815V162.51c0-18.964,24.988-27.869,42.652-27.869,16.511,0,41.883,8.9,41.883,27.869ZM814.9,93.215c-39.169.393-84.887,23.229-84.887,69.3v70.072c0,46.842,45.718,68.911,84.887,69.3,38.4-.384,84.122-22.453,84.122-69.3V162.51c0-46.066-45.723-68.9-84.122-69.3Z" fill="#fff" fill-rule="evenodd"/>
  <path id="Path_150535" data-name="Path 150535" d="M561.651,229.373c0,18.975-25.381,29.815-41.888,29.815-17.659,0-42.647-10.84-42.647-29.815V162.51c0-18.964,24.988-27.869,42.647-27.869,16.507,0,41.888,8.9,41.888,27.869ZM519.763,93.215c-39.164.393-84.884,23.229-84.884,69.3v70.072c0,46.842,45.72,68.911,84.884,69.3,38.4-.384,84.124-22.453,84.124-69.3V162.51c0-46.066-45.724-68.9-84.124-69.3Z" fill="#fff" fill-rule="evenodd"/>
  <path id="Path_150536" data-name="Path 150536" d="M431.714,108.47c-31.263-8.53-54.382-12.1-87.887-12.1s-56.694,3.568-87.9,12.072a1.753,1.753,0,0,0-1.087,2.786c10.683,8.9,15.167,20.8,17.243,34.224a267.017,267.017,0,0,1,50.625-7.678V300.5a.9.9,0,0,0,1.014.937h40.191c.694.054,1.035-.25,1.027-.9V137.8a258.536,258.536,0,0,1,48.758,7.65c2.593-13.35,8-25.8,18.947-34.135a1.756,1.756,0,0,0-.931-2.843" fill="#fff" fill-rule="evenodd"/>
  <path id="Path_150537" data-name="Path 150537" d="M731.541,94.652a118.251,118.251,0,0,0-19.681-1.419c-38.473,1.485-81.982,24.374-81.982,69.278V300.936a.909.909,0,0,0,1.018.937h40.191c.7.054,1.036-.25,1.022-.9v-3.624h.007V162.511c0-14.808,18.084-23.964,33.17-27.05,4.387-14.764,13.006-25.415,26.2-36.094,2.312-1.872,2.188-4.418.057-4.715" fill="#fff" fill-rule="evenodd"/>
  <path id="Path_150538" data-name="Path 150538" d="M210.547,174.33a1.781,1.781,0,0,1-1.774,1.79H131.737V162.014c0-19.244,22.684-28.271,40.6-28.271,16.747,0,38.222,9.027,38.222,28.271Zm-38.211-82.6c-39.725.395-83.436,23.558-83.436,70.286V233.08c0,47.511,43.711,69.9,83.436,70.286,28.46-.285,60.864-12.154,76.286-37.316a1.8,1.8,0,0,0-.724-2.4c-13.6-7.86-21.491-12.213-34.967-19.86a.815.815,0,0,0-1.227.337c-7.363,12.365-26.156,19.189-39.368,19.189-17.915,0-40.6-11-40.6-30.238v-21.23H241.859a10.692,10.692,0,0,0,10.649-10.739v-39.1c0-46.728-41.226-69.892-80.172-70.286Z" fill="#fff" fill-rule="evenodd"/>
</svg>
