<svg xmlns="http://www.w3.org/2000/svg" width="233.258" height="64" viewBox="0 0 233.258 64">
  <g id="Reeco" transform="translate(-0.445 -0.793)">
    <path id="Path_142803" data-name="Path 142803" d="M43.374,48.981c-2.277-7.4-4.909-8.8-8.1-10.049A17.081,17.081,0,0,0,48.687,21.4c0-17.311-13.323-20.6-20.041-20.6C18.625.785.445.909.445.909V64.62H16.364c-1.151-1.539-1.859-4.5-1.943-10.746-.036-2.838,0-12.567,0-12.567,4.366,0,9.907-.066,12.873,3.654,2.633,3.3,4.9,9.661,8,19.789H52.716C48.687,61.92,46.148,57.988,43.374,48.981ZM23.858,30.921H14.413V12.295h9.435c6.123,0,11.394,1.847,11.394,8.653s-4.088,9.971-11.386,9.971Z" transform="translate(0)" fill="#fff"/>
    <path id="Path_142804" data-name="Path 142804" d="M366.885,52.039c-.058-8.363-3.752-16.713-10.848-20.759-9.555-5.441-24.361-4.4-31.837,4.444-9,10.646-6.754,30.283,5.505,37.142,9.517,5.323,24.157,4.3,31.619-4.432A24.975,24.975,0,0,0,366.885,52.039ZM342.8,65.086a9.219,9.219,0,0,1-7.43-4.024,15.791,15.791,0,0,1-2.475-9.023,15.746,15.746,0,0,1,2.475-9.023,8.871,8.871,0,0,1,14.86,0,15.792,15.792,0,0,1,2.475,9.023,15.746,15.746,0,0,1-2.475,9.023,9.219,9.219,0,0,1-7.43,4.026Z" transform="translate(-133.191 -11.372)" fill="#fff"/>
    <path id="Path_142805" data-name="Path 142805" d="M268.022,64.57a12.536,12.536,0,1,1,0-25.072,22.006,22.006,0,0,1,11.622,3.372,47.684,47.684,0,0,1,4.31-9.183,31.355,31.355,0,0,0-18.336-5.737c-10.884,0-24.307,6.418-24.307,24.085s13.425,24.085,24.307,24.085a31.355,31.355,0,0,0,18.336-5.737,47.681,47.681,0,0,1-4.31-9.183,22,22,0,0,1-11.622,3.37Z" transform="translate(-100.801 -11.371)" fill="#fff"/>
    <path id="Path_142806" data-name="Path 142806" d="M152.205,64.8c10.446-5.2,19.589-10.5,20.115-20.315a14.778,14.778,0,0,0-5.739-13.135c-7.72-5.489-19.989-4.046-27.215,2.243C132.1,39.927,130.5,48.146,131.759,57.1a36.528,36.528,0,0,0,1.325,4.649,60.848,60.848,0,0,1-17.155,4.064,24.441,24.441,0,0,1-9.343-1.243,62.461,62.461,0,0,0,14.78-8.411c8.311-7.074,7.034-20.053.344-24.806-7.722-5.489-19.989-4.046-27.215,2.243-7.264,6.333-8.869,14.552-7.608,23.505A19.681,19.681,0,0,0,97.8,73.006a34.845,34.845,0,0,0,16.477,3.1c10.824,0,20.155-4.236,24.387-5.7a28.231,28.231,0,0,0,17.191,5.713c6.073,0,14.1-.784,20.673-4.963a29.952,29.952,0,0,1-4.2-9.231C168.157,64.281,160.109,67.148,152.205,64.8Zm-49.173-22.52c2.147-3,6.738-5.329,10.216-3.03,3.634,2.4,2.031,6.385.07,8.631-3.526,4.026-8.008,5.929-12.729,7.8-.278-2.337-.54-9.207,2.451-13.4Zm44.873,0c2.147-3,6.738-5.329,10.216-3.03,3.634,2.4,2.3,7.21.334,9.455a30.489,30.489,0,0,1-12.629,7.858,18.082,18.082,0,0,1,2.089-14.282Z" transform="translate(-36.014 -11.371)" fill="#fff"/>
  </g>
</svg>
