<svg id="Fiverr" xmlns="http://www.w3.org/2000/svg" width="400" height="121.348" viewBox="0 0 400 121.348">
  <path id="path2" d="M366.742,58.876H352.809c-8.989,0-13.933,6.742-13.933,18.427v41.8H311.91V58.876H300.674c-8.989,0-13.933,6.742-13.933,18.427v41.8H259.775V36.4h26.966V48.989C291.236,39.1,297.079,36.4,306.067,36.4h32.809V48.989C343.371,39.1,349.213,36.4,358.2,36.4h8.989ZM253.483,84.045h-55.73c1.348,9.438,7.191,14.382,16.629,14.382,7.191,0,12.135-3.146,13.933-8.09l23.82,6.742C246.292,111.461,231.91,120,214.382,120c-29.213,0-42.7-22.921-42.7-42.7,0-19.326,11.685-42.247,40.9-42.247,31.011,0,41.348,23.371,41.348,40.9C253.933,80,253.933,82.247,253.483,84.045Zm-25.618-15.73c-.449-7.191-5.843-13.483-14.831-13.483-8.539,0-13.483,3.6-15.281,13.483ZM124.944,119.1h23.371l29.663-82.247H151.011l-14.382,48.09L122.247,36.4H95.281Zm-109.663,0H41.8V58.876H67.416V119.1H93.933V36.4H41.8V31.461c0-5.393,4.045-8.989,9.888-8.989h15.73V0H47.64C28.314,0,15.28,12.135,15.28,29.663V36.4H0V58.876H15.281Z" fill="#fff"/>
  <path id="path5" d="M383.371,121.348a16.629,16.629,0,1,0-16.629-16.629A16.886,16.886,0,0,0,383.371,121.348Z" fill="#fff"/>
</svg>
