<svg xmlns="http://www.w3.org/2000/svg" width="358" height="595" fill="none"><g clip-path="url(#a)" opacity=".2"><g filter="url(#b)"><path fill="#7C48EA" d="m345.667 870.08-38.893-103.67C120.834 270.779-189.064-168.922-593.348-510.734A3456.5 3456.5 0 0 1 166.318 919.322l3.666 14.242 175.683-63.484z"/></g><g filter="url(#c)" opacity=".09"><path fill="#7C48EA" d="m219.304 759.665-38.647-103.762C-4.11 159.833-312.966-280.599-716.44-623.366A3456.49 3456.49 0 0 1 39.84 808.481l3.631 14.252 175.833-63.068z"/></g><g filter="url(#d)" style="mix-blend-mode:screen"><path fill="#EAB4FF" d="m345.667 870.081-28.763-64.524A4334.493 4334.493 0 0 0-593.348-510.734a3767.158 3767.158 0 0 1 819.351 1358.65l9.236 26.922 110.428-4.757z"/></g><g filter="url(#e)" opacity=".09" style="mix-blend-mode:screen"><path fill="#EAB4FF" d="m219.304 759.665-28.61-64.591A4334.47 4334.47 0 0 0-716.44-623.366 3767.138 3767.138 0 0 1 99.693 737.217l9.173 26.944 110.438-4.496z"/></g><g filter="url(#f)" style="mix-blend-mode:color-dodge"><path fill="#5037F1" d="m345.667 870.08-38.893-103.67C120.834 270.779-189.064-168.922-593.348-510.734A3456.5 3456.5 0 0 1 166.318 919.322l3.666 14.242 175.683-63.484z"/></g><g filter="url(#g)" opacity=".09" style="mix-blend-mode:color-dodge"><path fill="#5037F1" d="m211.931 774.957-38.647-103.762C-11.483 175.126-320.339-265.306-723.813-608.074A3456.5 3456.5 0 0 1 32.467 823.773l3.63 14.253 175.834-63.069z"/></g></g><defs><filter id="b" width="1031.01" height="1536.3" x="-639.348" y="-556.734" color-interpolation-filters="sRGB" filterUnits="userSpaceOnUse"><feFlood flood-opacity="0" result="BackgroundImageFix"/><feBlend in="SourceGraphic" in2="BackgroundImageFix" result="shape"/><feGaussianBlur result="effect1_foregroundBlur_490_2648" stdDeviation="23"/></filter><filter id="c" width="1027.74" height="1538.1" x="-762.44" y="-669.366" color-interpolation-filters="sRGB" filterUnits="userSpaceOnUse"><feFlood flood-opacity="0" result="BackgroundImageFix"/><feBlend in="SourceGraphic" in2="BackgroundImageFix" result="shape"/><feGaussianBlur result="effect1_foregroundBlur_490_2648" stdDeviation="23"/></filter><filter id="d" width="1031.01" height="1477.57" x="-639.348" y="-556.734" color-interpolation-filters="sRGB" filterUnits="userSpaceOnUse"><feFlood flood-opacity="0" result="BackgroundImageFix"/><feBlend in="SourceGraphic" in2="BackgroundImageFix" result="shape"/><feGaussianBlur result="effect1_foregroundBlur_490_2648" stdDeviation="23"/></filter><filter id="e" width="1027.74" height="1479.53" x="-762.44" y="-669.366" color-interpolation-filters="sRGB" filterUnits="userSpaceOnUse"><feFlood flood-opacity="0" result="BackgroundImageFix"/><feBlend in="SourceGraphic" in2="BackgroundImageFix" result="shape"/><feGaussianBlur result="effect1_foregroundBlur_490_2648" stdDeviation="23"/></filter><filter id="f" width="1259.01" height="1764.3" x="-753.348" y="-670.734" color-interpolation-filters="sRGB" filterUnits="userSpaceOnUse"><feFlood flood-opacity="0" result="BackgroundImageFix"/><feBlend in="SourceGraphic" in2="BackgroundImageFix" result="shape"/><feGaussianBlur result="effect1_foregroundBlur_490_2648" stdDeviation="80"/></filter><filter id="g" width="1535.74" height="2046.1" x="-1023.81" y="-908.074" color-interpolation-filters="sRGB" filterUnits="userSpaceOnUse"><feFlood flood-opacity="0" result="BackgroundImageFix"/><feBlend in="SourceGraphic" in2="BackgroundImageFix" result="shape"/><feGaussianBlur result="effect1_foregroundBlur_490_2648" stdDeviation="150"/></filter><clipPath id="a"><path fill="#fff" d="M358 595H0V0h358z"/></clipPath></defs></svg>