<svg xmlns="http://www.w3.org/2000/svg" xmlns:xlink="http://www.w3.org/1999/xlink" width="422.917" height="220.039" viewBox="0 0 422.917 220.039">
  <defs>
    <filter id="Rectangle_13872" x="0" y="0" width="422.917" height="81.268" filterUnits="userSpaceOnUse">
      <feOffset dy="6" input="SourceAlpha"/>
      <feGaussianBlur stdDeviation="3" result="blur"/>
      <feFlood flood-color="#c1a8cc" flood-opacity="0.039"/>
      <feComposite operator="in" in2="blur"/>
      <feComposite in="SourceGraphic"/>
    </filter>
    <clipPath id="clip-path">
      <rect id="Rectangle_13874" data-name="Rectangle 13874" width="12.491" height="80.844" fill="none" stroke="rgba(0,0,114,0.24)" stroke-linejoin="round" stroke-width="2"/>
    </clipPath>
  </defs>
  <g id="Group_78694" data-name="Group 78694" transform="translate(34.789 14287.175)">
    <g id="Group_78690" data-name="Group 78690" transform="translate(-25.789 -14275.175)">
      <g transform="matrix(1, 0, 0, 1, -9, -12)" filter="url(#Rectangle_13872)">
        <rect id="Rectangle_13872-2" data-name="Rectangle 13872" width="404.917" height="63.268" rx="8" transform="translate(9 3)" fill="#fff"/>
      </g>
      <path id="Path_149768" data-name="Path 149768" d="M2.856-16.032l-1.848-.312v-1.488h7.68v1.488l-2.3.312V-1.7L11.52-1.92l1.512-4.488,1.944.264L14.232,0H.96V-1.44l1.9-.24ZM22.44.264A5.785,5.785,0,0,1,17.724-1.6a7.7,7.7,0,0,1-1.548-5.076,8.176,8.176,0,0,1,.8-3.744,5.687,5.687,0,0,1,2.268-2.424,6.679,6.679,0,0,1,3.384-.84,5.086,5.086,0,0,1,3.7,1.26,4.925,4.925,0,0,1,1.344,3.588A10.528,10.528,0,0,1,27.48-6.48h-7.8a5.883,5.883,0,0,0,1.032,3.4,3.168,3.168,0,0,0,2.664,1.212,6.449,6.449,0,0,0,1.932-.312,5.239,5.239,0,0,0,1.572-.744l.6,1.32a5.891,5.891,0,0,1-2.1,1.284A7.773,7.773,0,0,1,22.44.264ZM24.312-7.92q.048-.672.048-1.032,0-3.192-2.136-3.192a2.091,2.091,0,0,0-1.824.936,6.431,6.431,0,0,0-.72,3.288Zm5.016,4.176a3.521,3.521,0,0,1,2.2-3.288A12.848,12.848,0,0,1,37.2-8.16v-.552a4.589,4.589,0,0,0-.2-1.536,1.48,1.48,0,0,0-.744-.828,3.548,3.548,0,0,0-1.572-.276,6.906,6.906,0,0,0-2.112.3,15.644,15.644,0,0,0-1.944.78l-.744-1.536a6.352,6.352,0,0,1,1.212-.744,10.912,10.912,0,0,1,2.028-.756,9.084,9.084,0,0,1,2.424-.324,7.073,7.073,0,0,1,2.892.48,2.9,2.9,0,0,1,1.5,1.536,7.268,7.268,0,0,1,.456,2.832V-1.44h1.3V-.1a13.4,13.4,0,0,1-1.368.24,11.826,11.826,0,0,1-1.56.12,1.751,1.751,0,0,1-1.092-.24,1.3,1.3,0,0,1-.276-.984v-.648a6.485,6.485,0,0,1-1.68,1.3,4.694,4.694,0,0,1-2.328.576A4.423,4.423,0,0,1,31.356-.2,3.626,3.626,0,0,1,29.88-1.572,4.076,4.076,0,0,1,29.328-3.744ZM34.92-1.728a2.8,2.8,0,0,0,1.152-.3A4.494,4.494,0,0,0,37.2-2.76V-6.7a5.751,5.751,0,0,0-3.228.732A2.2,2.2,0,0,0,32.9-4.08a2.538,2.538,0,0,0,.54,1.752A1.885,1.885,0,0,0,34.92-1.728ZM48.192.264a5.063,5.063,0,0,1-2.664-.708,4.876,4.876,0,0,1-1.872-2.2,8.772,8.772,0,0,1-.7-3.72,8.17,8.17,0,0,1,.828-3.684A6.381,6.381,0,0,1,46.224-12.7a7.262,7.262,0,0,1,3.864-.984,7.525,7.525,0,0,1,1.728.192v-4.056l-2.352-.336V-19.2l4.944-.48h.072l.672.5V-1.464h1.3V-.1a14.539,14.539,0,0,1-2.856.36A1.813,1.813,0,0,1,52.5.012a1.216,1.216,0,0,1-.324-1v-.672a4.681,4.681,0,0,1-1.7,1.38A5.032,5.032,0,0,1,48.192.264ZM49.44-1.728a2.955,2.955,0,0,0,1.4-.324,3.006,3.006,0,0,0,.972-.78v-8.736a1.337,1.337,0,0,0-.708-.408,3.9,3.9,0,0,0-1.164-.168,2.857,2.857,0,0,0-2.46,1.332,7.629,7.629,0,0,0-.924,4.26,6.645,6.645,0,0,0,.792,3.636A2.409,2.409,0,0,0,49.44-1.728Zm16.224-14.3-1.8-.312v-1.488h3.624q.5,0,1.56-.048,1.392-.1,2.52-.1a10.391,10.391,0,0,1,3.948.612,3.981,3.981,0,0,1,2.064,1.752,6.076,6.076,0,0,1,.612,2.892,5.975,5.975,0,0,1-1.884,4.7,7.568,7.568,0,0,1-5.22,1.68,17.3,17.3,0,0,1-1.9-.072V-1.68l3.216.24V0h-8.64V-1.44l1.9-.24Zm3.5,8.088a10.015,10.015,0,0,0,1.872.12A3.252,3.252,0,0,0,73.62-8.94a5.629,5.629,0,0,0,.972-3.708,4.167,4.167,0,0,0-.876-2.94,3.526,3.526,0,0,0-2.676-.924,10.535,10.535,0,0,0-1.392.1,3.9,3.9,0,0,1-.48.048ZM79.752-1.416l1.584-.192v-9.456L79.8-11.5v-1.656l3.72-.5h.072l.6.48v.528L84.12-10.7h.072a3.966,3.966,0,0,1,.792-1.188,6.082,6.082,0,0,1,1.572-1.248,4.076,4.076,0,0,1,2.052-.54,2.6,2.6,0,0,1,.912.144v3.6a2.978,2.978,0,0,0-1.752-.5A5.067,5.067,0,0,0,84.72-9.5v7.872l2.784.216V0H79.752Zm11.3-5.232a7.659,7.659,0,0,1,.9-3.84,5.97,5.97,0,0,1,2.412-2.388,6.9,6.9,0,0,1,3.288-.8,5.9,5.9,0,0,1,4.668,1.86,7.357,7.357,0,0,1,1.644,5.052,7.78,7.78,0,0,1-.9,3.876,5.814,5.814,0,0,1-2.4,2.376,7.044,7.044,0,0,1-3.3.78A5.909,5.909,0,0,1,92.712-1.6,7.323,7.323,0,0,1,91.056-6.648ZM97.56-1.3q2.712,0,2.712-5.232a10.451,10.451,0,0,0-.648-4.164,2.186,2.186,0,0,0-2.112-1.428q-2.784,0-2.784,5.232a9.957,9.957,0,0,0,.684,4.164A2.254,2.254,0,0,0,97.56-1.3ZM111.168.264A5.063,5.063,0,0,1,108.5-.444a4.876,4.876,0,0,1-1.872-2.2,8.772,8.772,0,0,1-.7-3.72,8.17,8.17,0,0,1,.828-3.684A6.381,6.381,0,0,1,109.2-12.7a7.262,7.262,0,0,1,3.864-.984,7.525,7.525,0,0,1,1.728.192v-4.056l-2.352-.336V-19.2l4.944-.48h.072l.672.5V-1.464h1.3V-.1a14.539,14.539,0,0,1-2.856.36,1.813,1.813,0,0,1-1.092-.252,1.216,1.216,0,0,1-.324-1v-.672a4.681,4.681,0,0,1-1.7,1.38A5.032,5.032,0,0,1,111.168.264Zm1.248-1.992a2.955,2.955,0,0,0,1.4-.324,3.006,3.006,0,0,0,.972-.78v-8.736a1.337,1.337,0,0,0-.708-.408,3.9,3.9,0,0,0-1.164-.168,2.857,2.857,0,0,0-2.46,1.332,7.629,7.629,0,0,0-.924,4.26,6.645,6.645,0,0,0,.792,3.636A2.409,2.409,0,0,0,112.416-1.728ZM132,.24A1.652,1.652,0,0,1,130.848-.1a1.314,1.314,0,0,1-.36-1.008v-.648a5.734,5.734,0,0,1-1.824,1.4,5.055,5.055,0,0,1-2.352.612,4.048,4.048,0,0,1-3.288-1.188,6.173,6.173,0,0,1-.984-3.924v-6.768l-1.2-.336V-13.32l4.08-.312h.024l.48.336v8.448a4.965,4.965,0,0,0,.432,2.448,1.741,1.741,0,0,0,1.608.7,3.877,3.877,0,0,0,2.64-1.1v-8.808l-1.608-.36V-13.32l4.344-.312h.048l.576.336V-1.488h1.344L134.784-.12q-.1.024-.888.192A9.264,9.264,0,0,1,132,.24Zm4.2-6.84a7.907,7.907,0,0,1,.828-3.672A6.037,6.037,0,0,1,139.4-12.78a7.057,7.057,0,0,1,3.612-.9,8.28,8.28,0,0,1,1.656.144q.7.144,1.56.384l.7.192-.144,4.1H144.7l-.6-2.64q-.144-.624-1.416-.624a2.369,2.369,0,0,0-2.1,1.176,7.081,7.081,0,0,0-.78,3.672,7.438,7.438,0,0,0,.912,4.044,2.776,2.776,0,0,0,2.424,1.4,6.106,6.106,0,0,0,3.36-.984l.552,1.248A5.871,5.871,0,0,1,145.14-.312a6.694,6.694,0,0,1-2.772.576,5.614,5.614,0,0,1-4.62-1.9A7.608,7.608,0,0,1,136.2-6.6ZM153,.216a3.11,3.11,0,0,1-2.232-.7,2.956,2.956,0,0,1-.72-2.208V-11.5h-1.56v-1.248q.192-.072.7-.252t.768-.3a2.381,2.381,0,0,0,.7-1.08q.216-.5.792-2.5h1.92l.1,3.528h3.672V-11.5H153.48v6.744a16.9,16.9,0,0,0,.072,1.9.962.962,0,0,0,.312.708,1.635,1.635,0,0,0,.84.156,6.251,6.251,0,0,0,1.248-.132,5.3,5.3,0,0,0,1.08-.324l.456,1.344a6.678,6.678,0,0,1-1.968.912A8.371,8.371,0,0,1,153,.216Zm14.208-16.248-2.592-.312v-1.488H172.1l2.856,10.32.672,2.808.576-2.808,2.832-10.32h7.416v1.488l-2.616.312L185.76-1.7l1.944.264V0h-7.656V-1.44l2.112-.24L181.1-12.192l-.456-4.392-.888,3.7L176.28-.744h-2.544l-3.552-11.52-1.224-4.32-.36,4.392L167.688-1.68l2.424.24V0H163.44V-1.44l2.016-.24ZM188.592-3.744a3.521,3.521,0,0,1,2.2-3.288,12.848,12.848,0,0,1,5.676-1.128v-.552a4.589,4.589,0,0,0-.2-1.536,1.48,1.48,0,0,0-.744-.828,3.548,3.548,0,0,0-1.572-.276,6.906,6.906,0,0,0-2.112.3,15.643,15.643,0,0,0-1.944.78l-.744-1.536a6.352,6.352,0,0,1,1.212-.744,10.912,10.912,0,0,1,2.028-.756,9.084,9.084,0,0,1,2.424-.324,7.073,7.073,0,0,1,2.892.48,2.9,2.9,0,0,1,1.5,1.536,7.268,7.268,0,0,1,.456,2.832V-1.44h1.3V-.1a13.4,13.4,0,0,1-1.368.24,11.826,11.826,0,0,1-1.56.12,1.751,1.751,0,0,1-1.092-.24,1.3,1.3,0,0,1-.276-.984v-.648a6.485,6.485,0,0,1-1.68,1.3,4.694,4.694,0,0,1-2.328.576A4.423,4.423,0,0,1,190.62-.2a3.626,3.626,0,0,1-1.476-1.368A4.076,4.076,0,0,1,188.592-3.744Zm5.592,2.016a2.8,2.8,0,0,0,1.152-.3,4.494,4.494,0,0,0,1.128-.732V-6.7a5.751,5.751,0,0,0-3.228.732,2.2,2.2,0,0,0-1.068,1.884,2.538,2.538,0,0,0,.54,1.752A1.885,1.885,0,0,0,194.184-1.728Zm9.6-9.336-1.536-.432v-1.656l3.984-.5h.072l.6.48v.936l-.024.576a7.4,7.4,0,0,1,2.184-1.368,6.831,6.831,0,0,1,2.712-.576,4.169,4.169,0,0,1,2.292.54,2.992,2.992,0,0,1,1.188,1.692,10.826,10.826,0,0,1,.36,3.12v6.624l1.464.192V0h-6.192V-1.44l1.3-.192V-8.256a8.889,8.889,0,0,0-.168-1.956,1.706,1.706,0,0,0-.612-1.032,2.11,2.11,0,0,0-1.26-.324,4.965,4.965,0,0,0-2.928,1.176v8.736l1.44.216V0h-6.264V-1.44l1.392-.216Zm14.736,7.32a3.521,3.521,0,0,1,2.2-3.288,12.848,12.848,0,0,1,5.676-1.128v-.552a4.589,4.589,0,0,0-.2-1.536,1.48,1.48,0,0,0-.744-.828,3.548,3.548,0,0,0-1.572-.276,6.906,6.906,0,0,0-2.112.3,15.643,15.643,0,0,0-1.944.78l-.744-1.536a6.352,6.352,0,0,1,1.212-.744,10.912,10.912,0,0,1,2.028-.756,9.084,9.084,0,0,1,2.424-.324,7.073,7.073,0,0,1,2.892.48,2.9,2.9,0,0,1,1.5,1.536,7.268,7.268,0,0,1,.456,2.832V-1.44h1.3V-.1a13.4,13.4,0,0,1-1.368.24,11.826,11.826,0,0,1-1.56.12,1.751,1.751,0,0,1-1.092-.24,1.3,1.3,0,0,1-.276-.984v-.648a6.485,6.485,0,0,1-1.68,1.3,4.694,4.694,0,0,1-2.328.576A4.423,4.423,0,0,1,220.548-.2a3.626,3.626,0,0,1-1.476-1.368A4.076,4.076,0,0,1,218.52-3.744Zm5.592,2.016a2.8,2.8,0,0,0,1.152-.3,4.494,4.494,0,0,0,1.128-.732V-6.7a5.751,5.751,0,0,0-3.228.732A2.2,2.2,0,0,0,222.1-4.08a2.538,2.538,0,0,0,.54,1.752A1.885,1.885,0,0,0,224.112-1.728ZM238.176,6.48a8.3,8.3,0,0,1-4.656-1.008,3.171,3.171,0,0,1-1.44-2.736,3.039,3.039,0,0,1,.66-1.86,4.171,4.171,0,0,1,1.6-1.308,2.216,2.216,0,0,1-1.1-2.064,2.6,2.6,0,0,1,.528-1.548,3.59,3.59,0,0,1,1.368-1.14A3.854,3.854,0,0,1,233.16-6.72a4.508,4.508,0,0,1-.648-2.448,3.745,3.745,0,0,1,.8-2.388,5.157,5.157,0,0,1,2.16-1.572,7.723,7.723,0,0,1,2.94-.552,6.685,6.685,0,0,1,4.176,1.08,2.9,2.9,0,0,1,1.056-.768,3.488,3.488,0,0,1,1.536-.36h.84v2.616h-2.472a3.8,3.8,0,0,1,.36,1.632,4.26,4.26,0,0,1-1.536,3.492A6.445,6.445,0,0,1,238.1-4.68a9.049,9.049,0,0,1-1.9-.168,2.581,2.581,0,0,0-.372.66,1.761,1.761,0,0,0-.132.612,1.1,1.1,0,0,0,.564,1.08,4.932,4.932,0,0,0,2.028.288h2.568q4.9,0,4.9,3.552A3.88,3.88,0,0,1,244.7,4.008,6.91,6.91,0,0,1,241.9,5.832,10.637,10.637,0,0,1,238.176,6.48Zm.168-12.648q2.232,0,2.232-3.048a3.758,3.758,0,0,0-.564-2.292,2.03,2.03,0,0,0-1.716-.732,2.141,2.141,0,0,0-1.74.732,3.36,3.36,0,0,0-.612,2.2Q235.944-6.168,238.344-6.168Zm.192,10.992a4.624,4.624,0,0,0,2.616-.732,2.306,2.306,0,0,0,1.1-2.028,1.847,1.847,0,0,0-.54-1.488A3.064,3.064,0,0,0,239.784.12h-2.616a7.833,7.833,0,0,1-1.1-.072,3.342,3.342,0,0,0-.648,2.064,2.676,2.676,0,0,0,.72,2.016A3.387,3.387,0,0,0,238.536,4.824Z" transform="translate(23.308 31.134)" fill="#000040"/>
      <rect id="Rectangle_13873" data-name="Rectangle 13873" width="1.947" height="46.083" rx="0.973" transform="translate(276.459 -0.407)" fill="#7e27e4"/>
    </g>
    <g id="Group_78742" data-name="Group 78742" transform="translate(-309.836 117)">
      <rect id="Rectangle_13777" data-name="Rectangle 13777" width="84.109" height="36.352" rx="8" transform="translate(436.292 -14309.608)" fill="#7e27e4" opacity="0.12"/>
      <path id="Path_149541" data-name="Path 149541" d="M4.425-.929a3.947,3.947,0,0,0,2.584-.794A2.66,2.66,0,0,0,8-3.9,2.423,2.423,0,0,0,6.966-5.981a2.785,2.785,0,0,0-.736-.4c-.318-.13-.563-.231-.751-.289s-.447-.159-.837-.289C3.1-7.439,2.606-7.785,2.606-8.536s.621-1.256,1.588-1.256A2.175,2.175,0,0,1,6.316-8.377l1.4-.808a3.741,3.741,0,0,0-3.522-2.223,3.443,3.443,0,0,0-2.3.794A2.6,2.6,0,0,0,.947-8.492a2.326,2.326,0,0,0,.982,2.035,6.865,6.865,0,0,0,2.122.924,7.782,7.782,0,0,1,1.79.722,1.048,1.048,0,0,1,.505.938c0,.794-.621,1.328-1.876,1.328a2.414,2.414,0,0,1-2.512-1.7L.528-3.412A3.828,3.828,0,0,0,4.425-.929ZM16.506-4.061a4.233,4.233,0,0,0,.058-.65,3.859,3.859,0,0,0-1.025-2.7,3.383,3.383,0,0,0-2.6-1.111,3.643,3.643,0,0,0-2.742,1.1,3.7,3.7,0,0,0-1.068,2.7A3.7,3.7,0,0,0,10.213-2,3.9,3.9,0,0,0,13.057-.929,3.551,3.551,0,0,0,16.218-2.5l-1.285-.751a2.138,2.138,0,0,1-1.862.895,2.156,2.156,0,0,1-2.309-1.7Zm-5.759-1.27a2.1,2.1,0,0,1,2.18-1.775,2.011,2.011,0,0,1,2.064,1.775Zm10.984-3.19A2.467,2.467,0,0,0,19.494-7.41v-.924H17.935v7.217h1.559V-4.985c0-1.4.736-2.078,1.833-2.078a1.5,1.5,0,0,1,1.617,1.674v4.272H24.5V-5.548A2.688,2.688,0,0,0,21.732-8.521ZM27.649-9.7a.972.972,0,0,0,.014-1.4.977.977,0,0,0-1.415,0,.984.984,0,0,0,0,1.4A.984.984,0,0,0,27.649-9.7Zm.087,8.588V-8.334H26.177v7.217Zm5.211.188a3.658,3.658,0,0,0,2.7-1.1,3.67,3.67,0,0,0,1.111-2.7,3.67,3.67,0,0,0-1.111-2.7,3.658,3.658,0,0,0-2.7-1.1,3.681,3.681,0,0,0-2.7,1.1,3.67,3.67,0,0,0-1.111,2.7,3.67,3.67,0,0,0,1.111,2.7A3.681,3.681,0,0,0,32.947-.929Zm-1.6-2.165a2.22,2.22,0,0,1-.65-1.631,2.22,2.22,0,0,1,.65-1.631,2.177,2.177,0,0,1,1.6-.65,2.177,2.177,0,0,1,1.6.65,2.22,2.22,0,0,1,.65,1.631,2.22,2.22,0,0,1-.65,1.631,2.177,2.177,0,0,1-1.6.65A2.177,2.177,0,0,1,31.345-3.094Zm8.386-5.24H38.172v7.217h1.559V-4.754a1.814,1.814,0,0,1,.664-1.588,2.254,2.254,0,0,1,1.559-.433V-8.463a2.208,2.208,0,0,0-2.223,1.342ZM44.581-9.7a.972.972,0,0,0,.014-1.4.977.977,0,0,0-1.415,0,.984.984,0,0,0,0,1.4A.984.984,0,0,0,44.581-9.7Zm.087,8.588V-8.334H43.108v7.217ZM50.5-8.334h-1.79v-2.021l-1.559.462v1.559H45.822v1.5H47.15v3.464c0,1.891.967,2.54,3.349,2.252v-1.4c-1.184.058-1.79.072-1.79-.852V-6.832H50.5Zm4.576,5.24-2.151-5.24h-1.7l3.06,7.087-.072.144c-.39,1-.938,1.472-1.92,1.415V1.77c1.66.1,2.829-.794,3.522-2.656l2.771-7.448h-1.66Z" transform="translate(449.003 -14286.84)" fill="#7e27e4"/>
    </g>
    <g id="Group_78738" data-name="Group 78738" transform="translate(-309.836 122)">
      <rect id="Rectangle_13777-2" data-name="Rectangle 13777" width="57.736" height="35.639" rx="8" transform="translate(436.292 -14269.693)" fill="#fff"/>
      <path id="Path_149542" data-name="Path 149542" d="M4.425-.956a3.947,3.947,0,0,0,2.584-.794,2.66,2.66,0,0,0,1-2.18A2.423,2.423,0,0,0,6.966-6.007a2.784,2.784,0,0,0-.736-.4c-.318-.13-.563-.231-.751-.289s-.447-.159-.837-.289C3.1-7.465,2.606-7.812,2.606-8.562s.621-1.256,1.588-1.256A2.175,2.175,0,0,1,6.316-8.4l1.4-.808a3.741,3.741,0,0,0-3.522-2.223,3.443,3.443,0,0,0-2.3.794A2.6,2.6,0,0,0,.947-8.519a2.326,2.326,0,0,0,.982,2.035A6.865,6.865,0,0,0,4.05-5.56a7.782,7.782,0,0,1,1.79.722,1.048,1.048,0,0,1,.505.938c0,.794-.621,1.328-1.876,1.328a2.414,2.414,0,0,1-2.512-1.7L.528-3.438A3.828,3.828,0,0,0,4.425-.956Zm8.011-3.868L15.612-8.36H13.706l-2.8,3.19v-6.077H9.347v10.1h1.559V-4.477l2.959,3.334h1.862Zm5.817-4.908a.972.972,0,0,0,.014-1.4.977.977,0,0,0-1.415,0,.984.984,0,0,0,0,1.4A.984.984,0,0,0,18.253-9.731Zm.087,8.588V-8.36H16.781v7.217Zm3.363,0V-11.68H20.144V-1.143Zm3.363,0V-11.68H23.507V-1.143Zm3.161-5.225c0-.505.462-.765,1.054-.765a1.363,1.363,0,0,1,1.357.823l1.313-.736a2.917,2.917,0,0,0-2.67-1.5,2.94,2.94,0,0,0-1.891.606,1.944,1.944,0,0,0-.751,1.6c-.029,1.516,1.429,1.949,2.512,2.223.765.188,1.371.462,1.371.924,0,.534-.4.808-1.227.808a1.524,1.524,0,0,1-1.6-1.039l-1.342.779A3,3,0,0,0,29.295-.956,3.307,3.307,0,0,0,31.3-1.547a1.916,1.916,0,0,0,.808-1.631c.029-1.544-1.415-2.006-2.526-2.252C28.833-5.647,28.227-5.892,28.227-6.368Z" transform="translate(449.003 -14247.12)" fill="#7e27e4"/>
    </g>
    <g id="Group_78740" data-name="Group 78740" transform="translate(-309.836 127)">
      <path id="Path_149627" data-name="Path 149627" d="M8.553,0H61.3a8.553,8.553,0,0,1,8.553,8.553V27.8A8.553,8.553,0,0,1,61.3,36.352H8.553A8.553,8.553,0,0,1,0,27.8V8.553A8.553,8.553,0,0,1,8.553,0Z" transform="translate(436.292 -14230.488)" fill="#7e27e4" opacity="0.12"/>
      <path id="Path_149545" data-name="Path 149545" d="M.24-11.2v1.588H3.1V-1.1h1.66V-9.612H7.6V-11.2ZM9.348-8.313H7.789V-1.1H9.348V-4.734a1.814,1.814,0,0,1,.664-1.588,2.254,2.254,0,0,1,1.559-.433V-8.443A2.208,2.208,0,0,0,9.348-7.1ZM19.365-4.041a4.233,4.233,0,0,0,.058-.65,3.859,3.859,0,0,0-1.025-2.7A3.383,3.383,0,0,0,15.8-8.5a3.643,3.643,0,0,0-2.742,1.1,3.7,3.7,0,0,0-1.068,2.7,3.7,3.7,0,0,0,1.083,2.728A3.9,3.9,0,0,0,15.915-.909a3.551,3.551,0,0,0,3.161-1.573l-1.285-.751a2.138,2.138,0,0,1-1.862.895,2.156,2.156,0,0,1-2.309-1.7Zm-5.759-1.27a2.1,2.1,0,0,1,2.18-1.775,2.011,2.011,0,0,1,2.064,1.775ZM24.59-8.5a2.467,2.467,0,0,0-2.237,1.111v-.924H20.794V-1.1h1.559V-4.965c0-1.4.736-2.078,1.833-2.078A1.5,1.5,0,0,1,25.8-5.369V-1.1h1.559V-5.527A2.688,2.688,0,0,0,24.59-8.5ZM34.752-7.288A2.938,2.938,0,0,0,32.226-8.5a3.378,3.378,0,0,0-2.54,1.1,3.735,3.735,0,0,0-1.054,2.7,3.759,3.759,0,0,0,1.054,2.7,3.378,3.378,0,0,0,2.54,1.1,2.914,2.914,0,0,0,2.526-1.227V-1.1h1.559V-11.2H34.752ZM30.84-3.045a2.286,2.286,0,0,1-.65-1.66,2.23,2.23,0,0,1,.65-1.645,2.176,2.176,0,0,1,1.631-.664A2.176,2.176,0,0,1,34.1-6.35a2.23,2.23,0,0,1,.65,1.645,2.286,2.286,0,0,1-.65,1.66,2.22,2.22,0,0,1-1.631.65A2.22,2.22,0,0,1,30.84-3.045Zm8.646-3.277c0-.505.462-.765,1.054-.765a1.363,1.363,0,0,1,1.357.823L43.21-7a2.917,2.917,0,0,0-2.67-1.5,2.94,2.94,0,0,0-1.891.606,1.944,1.944,0,0,0-.751,1.6c-.029,1.516,1.429,1.949,2.512,2.223.765.188,1.371.462,1.371.924,0,.534-.4.808-1.227.808a1.524,1.524,0,0,1-1.6-1.039L37.61-2.6A3,3,0,0,0,40.554-.909,3.307,3.307,0,0,0,42.56-1.5a1.916,1.916,0,0,0,.808-1.631c.029-1.544-1.415-2.006-2.526-2.252C40.092-5.6,39.486-5.845,39.486-6.321Z" transform="translate(449.031 -14207.474)" fill="#7e27e4"/>
    </g>
    <g id="Group_78741" data-name="Group 78741" transform="translate(-304.836 127)">
      <rect id="Rectangle_13777-3" data-name="Rectangle 13777" width="109.057" height="36.352" rx="8" transform="translate(509.709 -14230.488)" fill="#fff"/>
      <path id="Path_149544" data-name="Path 149544" d="M4.425-.956a3.947,3.947,0,0,0,2.584-.794,2.66,2.66,0,0,0,1-2.18A2.423,2.423,0,0,0,6.966-6.007a2.784,2.784,0,0,0-.736-.4c-.318-.13-.563-.231-.751-.289s-.447-.159-.837-.289C3.1-7.465,2.606-7.812,2.606-8.562s.621-1.256,1.588-1.256A2.175,2.175,0,0,1,6.316-8.4l1.4-.808a3.741,3.741,0,0,0-3.522-2.223,3.443,3.443,0,0,0-2.3.794A2.6,2.6,0,0,0,.947-8.519a2.326,2.326,0,0,0,.982,2.035A6.865,6.865,0,0,0,4.05-5.56a7.782,7.782,0,0,1,1.79.722,1.048,1.048,0,0,1,.505.938c0,.794-.621,1.328-1.876,1.328a2.414,2.414,0,0,1-2.512-1.7L.528-3.438A3.828,3.828,0,0,0,4.425-.956Zm6.394-8.776a.972.972,0,0,0,.014-1.4.977.977,0,0,0-1.415,0,.984.984,0,0,0,0,1.4A.984.984,0,0,0,10.819-9.731Zm.087,8.588V-8.36H9.347v7.217Zm9.685-7.4a2.413,2.413,0,0,0-2.208,1.14,2.206,2.206,0,0,0-2.05-1.14,2.3,2.3,0,0,0-2.064,1.054V-8.36H12.71v7.217h1.559V-5.185c0-1.256.664-1.905,1.6-1.905.866,0,1.357.577,1.357,1.573v4.374h1.559V-5.185c0-1.27.606-1.905,1.573-1.905.866,0,1.4.577,1.4,1.573v4.374h1.559V-5.618A2.664,2.664,0,0,0,20.591-8.548Zm5.875-1.184a.972.972,0,0,0,.014-1.4.977.977,0,0,0-1.415,0,.984.984,0,0,0,0,1.4A.984.984,0,0,0,26.466-9.731Zm.087,8.588V-8.36H24.994v7.217Zm3.363,0V-11.68H28.357V-1.143Zm7.52-6.192A2.938,2.938,0,0,0,34.91-8.548a3.378,3.378,0,0,0-2.54,1.1,3.735,3.735,0,0,0-1.054,2.7,3.759,3.759,0,0,0,1.054,2.7,3.378,3.378,0,0,0,2.54,1.1,2.914,2.914,0,0,0,2.526-1.227v1.039h1.559V-8.36H37.436ZM33.524-3.092a2.286,2.286,0,0,1-.65-1.66,2.23,2.23,0,0,1,.65-1.645,2.176,2.176,0,0,1,1.631-.664,2.177,2.177,0,0,1,1.631.664,2.23,2.23,0,0,1,.65,1.645,2.286,2.286,0,0,1-.65,1.66,2.22,2.22,0,0,1-1.631.65A2.22,2.22,0,0,1,33.524-3.092ZM42.372-8.36H40.813v7.217h1.559V-4.781a1.814,1.814,0,0,1,.664-1.588A2.254,2.254,0,0,1,44.595-6.8V-8.49a2.208,2.208,0,0,0-2.223,1.342ZM57.037-1.143l-2.3-3.926A3.18,3.18,0,0,0,56.748-8a3.082,3.082,0,0,0-.953-2.3,3.083,3.083,0,0,0-2.3-.953H49.459v10.1h1.66V-4.824h1.963l2.136,3.681ZM53.5-9.688A1.635,1.635,0,0,1,55.089-8,1.635,1.635,0,0,1,53.5-6.311H51.119V-9.688ZM61.237-.956a3.658,3.658,0,0,0,2.7-1.1,3.67,3.67,0,0,0,1.111-2.7,3.67,3.67,0,0,0-1.111-2.7,3.658,3.658,0,0,0-2.7-1.1,3.68,3.68,0,0,0-2.7,1.1,3.67,3.67,0,0,0-1.111,2.7,3.67,3.67,0,0,0,1.111,2.7A3.68,3.68,0,0,0,61.237-.956Zm-1.6-2.165a2.22,2.22,0,0,1-.65-1.631,2.22,2.22,0,0,1,.65-1.631,2.177,2.177,0,0,1,1.6-.65,2.177,2.177,0,0,1,1.6.65,2.22,2.22,0,0,1,.65,1.631,2.22,2.22,0,0,1-.65,1.631,2.177,2.177,0,0,1-1.6.65A2.177,2.177,0,0,1,59.635-3.121Zm8.386,1.977V-11.68H66.463V-1.143ZM76.8-4.088a4.234,4.234,0,0,0,.058-.65,3.859,3.859,0,0,0-1.025-2.7,3.383,3.383,0,0,0-2.6-1.111,3.643,3.643,0,0,0-2.742,1.1,3.7,3.7,0,0,0-1.068,2.7A3.7,3.7,0,0,0,70.5-2.024,3.9,3.9,0,0,0,73.348-.956a3.551,3.551,0,0,0,3.161-1.573l-1.285-.751a2.138,2.138,0,0,1-1.862.895,2.156,2.156,0,0,1-2.309-1.7Zm-5.759-1.27a2.1,2.1,0,0,1,2.18-1.775,2.011,2.011,0,0,1,2.064,1.775Zm8.3-1.01c0-.505.462-.765,1.054-.765a1.363,1.363,0,0,1,1.357.823l1.313-.736a2.917,2.917,0,0,0-2.67-1.5,2.94,2.94,0,0,0-1.891.606,1.944,1.944,0,0,0-.751,1.6c-.029,1.516,1.429,1.949,2.512,2.223.765.188,1.371.462,1.371.924,0,.534-.4.808-1.227.808a1.524,1.524,0,0,1-1.6-1.039l-1.342.779A3,3,0,0,0,80.406-.956a3.307,3.307,0,0,0,2.006-.592,1.916,1.916,0,0,0,.808-1.631c.029-1.544-1.415-2.006-2.526-2.252C79.944-5.647,79.338-5.892,79.338-6.368Z" transform="translate(522.075 -14207.427)" fill="#7e27e4"/>
    </g>
    <g id="Group_78739" data-name="Group 78739" transform="translate(-304.836 122)">
      <path id="Path_149626" data-name="Path 149626" d="M8.553,0H96.939a8.553,8.553,0,0,1,8.553,8.553V27.086a8.553,8.553,0,0,1-8.553,8.553H8.553A8.553,8.553,0,0,1,0,27.086V8.553A8.553,8.553,0,0,1,8.553,0Z" transform="translate(497.592 -14269.693)" fill="#7e27e4" opacity="0.12"/>
      <path id="Path_149543" data-name="Path 149543" d="M5.843-.929a5.08,5.08,0,0,0,2.54-.65,4.739,4.739,0,0,0,1.8-1.775L8.744-4.177a3.216,3.216,0,0,1-2.9,1.631A3.545,3.545,0,0,1,3.216-3.57a3.56,3.56,0,0,1-1-2.6,3.56,3.56,0,0,1,1-2.6A3.545,3.545,0,0,1,5.843-9.791a3.232,3.232,0,0,1,2.9,1.631L10.187-9a4.981,4.981,0,0,0-4.345-2.41A5.1,5.1,0,0,0,2.061-9.892,5.06,5.06,0,0,0,.56-6.168a5.116,5.116,0,0,0,1.5,3.738A5.146,5.146,0,0,0,5.843-.929Zm11.316-6.38a2.938,2.938,0,0,0-2.526-1.212,3.378,3.378,0,0,0-2.54,1.1,3.735,3.735,0,0,0-1.054,2.7,3.759,3.759,0,0,0,1.054,2.7,3.378,3.378,0,0,0,2.54,1.1,2.914,2.914,0,0,0,2.526-1.227v1.039h1.559V-8.334H17.159ZM13.247-3.065a2.286,2.286,0,0,1-.65-1.66,2.23,2.23,0,0,1,.65-1.645,2.176,2.176,0,0,1,1.631-.664,2.176,2.176,0,0,1,1.631.664,2.23,2.23,0,0,1,.65,1.645,2.286,2.286,0,0,1-.65,1.66,2.22,2.22,0,0,1-1.631.65A2.22,2.22,0,0,1,13.247-3.065ZM22.1-8.334H20.537v7.217H22.1V-4.754a1.814,1.814,0,0,1,.664-1.588,2.254,2.254,0,0,1,1.559-.433V-8.463A2.208,2.208,0,0,0,22.1-7.121ZM32.113-4.061a4.234,4.234,0,0,0,.058-.65,3.859,3.859,0,0,0-1.025-2.7,3.383,3.383,0,0,0-2.6-1.111,3.643,3.643,0,0,0-2.742,1.1,3.7,3.7,0,0,0-1.068,2.7A3.7,3.7,0,0,0,25.819-2,3.9,3.9,0,0,0,28.663-.929,3.551,3.551,0,0,0,31.824-2.5l-1.285-.751a2.138,2.138,0,0,1-1.862.895,2.156,2.156,0,0,1-2.309-1.7Zm-5.759-1.27a2.1,2.1,0,0,1,2.18-1.775A2.011,2.011,0,0,1,30.6-5.331ZM40.47-4.061a4.233,4.233,0,0,0,.058-.65A3.859,3.859,0,0,0,39.5-7.41a3.383,3.383,0,0,0-2.6-1.111,3.643,3.643,0,0,0-2.742,1.1,3.7,3.7,0,0,0-1.068,2.7A3.7,3.7,0,0,0,34.177-2,3.9,3.9,0,0,0,37.02-.929,3.551,3.551,0,0,0,40.181-2.5L38.9-3.253a2.138,2.138,0,0,1-1.862.895,2.156,2.156,0,0,1-2.309-1.7Zm-5.759-1.27a2.1,2.1,0,0,1,2.18-1.775,2.011,2.011,0,0,1,2.064,1.775Zm8.747-3H41.9v7.217h1.559V-4.754a1.814,1.814,0,0,1,.664-1.588,2.255,2.255,0,0,1,1.559-.433V-8.463a2.208,2.208,0,0,0-2.223,1.342Zm7.087-2.887v10.1H52.2V-4.581h2.064a3.231,3.231,0,0,0,2.382-.953A3.2,3.2,0,0,0,57.618-7.9a3.178,3.178,0,0,0-.967-2.367,3.231,3.231,0,0,0-2.382-.953ZM52.2-6.14V-9.661h2.064A1.665,1.665,0,0,1,55.958-7.9,1.665,1.665,0,0,1,54.269-6.14ZM64.171-7.309a2.938,2.938,0,0,0-2.526-1.212,3.378,3.378,0,0,0-2.54,1.1,3.735,3.735,0,0,0-1.054,2.7,3.759,3.759,0,0,0,1.054,2.7,3.378,3.378,0,0,0,2.54,1.1,2.914,2.914,0,0,0,2.526-1.227v1.039H65.73V-8.334H64.171ZM60.259-3.065a2.286,2.286,0,0,1-.65-1.66,2.23,2.23,0,0,1,.65-1.645,2.177,2.177,0,0,1,1.631-.664,2.176,2.176,0,0,1,1.631.664,2.23,2.23,0,0,1,.65,1.645,2.286,2.286,0,0,1-.65,1.66,2.22,2.22,0,0,1-1.631.65A2.22,2.22,0,0,1,60.259-3.065ZM71.575-8.334h-1.79v-2.021l-1.559.462v1.559H66.9v1.5h1.328v3.464c0,1.891.967,2.54,3.349,2.252v-1.4c-1.184.058-1.79.072-1.79-.852V-6.832h1.79Zm5.211-.188A2.468,2.468,0,0,0,74.549-7.41V-11.22H72.99v10.1h1.559V-4.985c0-1.4.736-2.078,1.833-2.078A1.5,1.5,0,0,1,78-5.389v4.272h1.559V-5.548A2.688,2.688,0,0,0,76.786-8.521Z" transform="translate(510.345 -14247.146)" fill="#7e27e4"/>
    </g>
    <g id="Group_78737" data-name="Group 78737" transform="translate(-304.836 117)">
      <rect id="Rectangle_13777-4" data-name="Rectangle 13777" width="34.927" height="36.352" rx="8" transform="translate(523.965 -14309.608)" fill="#fff"/>
      <path id="Path_149546" data-name="Path 149546" d="M3.008-2.208A2.138,2.138,0,0,0,.848-.048a2.175,2.175,0,0,0,2.16,2.16,2.175,2.175,0,0,0,2.16-2.16A2.175,2.175,0,0,0,3.008-2.208Zm7.717,3.686a2.172,2.172,0,0,0,0-3.052,2.172,2.172,0,0,0-3.052,0,2.172,2.172,0,0,0,0,3.052A2.172,2.172,0,0,0,10.724,1.478Zm4.665-3.686a2.138,2.138,0,0,0-2.16,2.16,2.175,2.175,0,0,0,2.16,2.16,2.175,2.175,0,0,0,2.16-2.16A2.175,2.175,0,0,0,15.389-2.208Z" transform="translate(532.325 -14290.784)" fill="#7e27e4"/>
    </g>
    <g id="Ellipse_3412" data-name="Ellipse 3412" transform="translate(104.643 -14176.045)" fill="none" stroke="#7e27e4" stroke-width="2">
      <circle cx="6.018" cy="6.018" r="6.018" stroke="none"/>
      <circle cx="6.018" cy="6.018" r="5.018" fill="none"/>
    </g>
    <g id="Ellipse_3413" data-name="Ellipse 3413" transform="translate(104.643 -14135.121)" fill="none" stroke="#7e27e4" stroke-width="2">
      <circle cx="6.018" cy="6.018" r="6.018" stroke="none"/>
      <circle cx="6.018" cy="6.018" r="5.018" fill="none"/>
    </g>
    <g id="Ellipse_3414" data-name="Ellipse 3414" transform="translate(104.643 -14095.4)" fill="none" stroke="#7e27e4" stroke-width="2">
      <circle cx="6.018" cy="6.018" r="6.018" stroke="none"/>
      <circle cx="6.018" cy="6.018" r="5.018" fill="none"/>
    </g>
    <g id="Group_79114" data-name="Group 79114" transform="translate(6.211 -14211.916)">
      <path id="Path_150498" data-name="Path 150498" d="M93,83a.5.5,0,0,0,0-1ZM0,0V75.5H1V0ZM7.5,83H93V82H7.5ZM0,75.5A7.5,7.5,0,0,0,7.5,83V82A6.5,6.5,0,0,1,1,75.5Z" fill="#d1d1e2"/>
      <path id="Path_150499" data-name="Path 150499" d="M93,123.5a.5.5,0,0,0,0-1ZM93,42H86.5v1H93ZM79,49.5V116h1V49.5Zm7.5,74H93v-1H86.5ZM79,116a7.5,7.5,0,0,0,7.5,7.5v-1A6.5,6.5,0,0,1,80,116Zm7.5-74A7.5,7.5,0,0,0,79,49.5h1A6.5,6.5,0,0,1,86.5,43Z" fill="#d1d1e2"/>
    </g>
  </g>
</svg>
