<svg xmlns="http://www.w3.org/2000/svg" width="22" height="22" fill="none"><path fill="#2B106A" d="M10.853 8.296a2.567 2.567 0 1 0 2.567 2.567 2.557 2.557 0 0 0-2.567-2.567z"/><path fill="#2B106A" fill-rule="evenodd" d="M14.383 1.833h-7.05a5.5 5.5 0 0 0-5.5 5.5v7.05a5.5 5.5 0 0 0 5.5 5.5h7.05a5.5 5.5 0 0 0 5.5-5.5v-7.05a5.5 5.5 0 0 0-5.5-5.5zm-3.53 12.962a3.942 3.942 0 1 1 .019-7.883 3.942 3.942 0 0 1-.019 7.883zm3.424-8.459a1 1 0 0 0 .93.612.99.99 0 0 0 .99-.99 1 1 0 1 0-1.92.378z" clip-rule="evenodd"/></svg>