<svg xmlns="http://www.w3.org/2000/svg" width="19.908" height="12.436" viewBox="0 0 19.908 12.436">
  <path id="Path_150332" data-name="Path 150332" d="M4.042,11.782a4.071,4.071,0,0,0,3.981,4.271,3.6,3.6,0,0,0,2.786-1.213h.3a5.653,5.653,0,0,1-4.017,3.568,1.473,1.473,0,0,0-.624.3.583.583,0,0,0-.22.492A.685.685,0,0,0,7,19.877a3.114,3.114,0,0,0,1.037-.2,7.774,7.774,0,0,0,3.129-1.969,7,7,0,0,0,1.925-4.913c0-3.393-2.136-5.353-4.7-5.353A4.243,4.243,0,0,0,4.042,11.782Zm10.863,0a4.071,4.071,0,0,0,3.981,4.271,3.63,3.63,0,0,0,2.786-1.213h.29a5.636,5.636,0,0,1-4.017,3.568,1.43,1.43,0,0,0-.615.3.589.589,0,0,0-.229.492.7.7,0,0,0,.765.677,3.062,3.062,0,0,0,1.019-.2,7.774,7.774,0,0,0,3.129-1.969,6.967,6.967,0,0,0,1.934-4.913c0-3.393-2.136-5.353-4.7-5.353A4.237,4.237,0,0,0,14.905,11.782Z" transform="translate(-4.041 -7.441)" fill="#00001f"/>
</svg>
